# MagicaVoxel @ Ephtracy

# group
g progress_truck

# material
mtllib progress_truck.mtl
usemtl palette

# normals
vn -1 0 0
vn 1 0 0
vn 0 0 1
vn 0 0 -1
vn 0 -1 0
vn 0 1 0

# texcoords
vt 0.880859 0.5
vt 0.939453 0.5
vt 0.982422 0.5
vt 0.994141 0.5

# verts
v -11 2 0.5
v -11 2 -0.5
v -11 4 0.5
v -11 4 -0.5
v -10 0 0.5
v -10 0 -0.5
v -10 2 0.5
v -10 2 -0.5
v -6 0 0.5
v -6 0 -0.5
v -6 1 0.5
v -6 1 -0.5
v -3 4 0.5
v -3 4 -0.5
v -3 5 0.5
v -3 5 -0.5
v -3 6 0.5
v -3 6 -0.5
v -3 7 0.5
v -3 7 -0.5
v -3 8 0.5
v -3 8 -0.5
v -3 9 0.5
v -3 9 -0.5
v -3 10 0.5
v -3 10 -0.5
v -3 11 0.5
v -3 11 -0.5
v -3 12 0.5
v -3 12 -0.5
v 6 0 0.5
v 6 0 -0.5
v 6 1 0.5
v 6 1 -0.5
v -7 0 0.5
v -7 0 -0.5
v -7 1 0.5
v -7 1 -0.5
v -3 0 0.5
v -3 0 -0.5
v -3 1 0.5
v -3 1 -0.5
v -2 11 0.5
v -2 11 -0.5
v -2 12 0.5
v -2 12 -0.5
v -1 10 0.5
v -1 10 -0.5
v -1 11 0.5
v -1 11 -0.5
v 3 9 0.5
v 3 9 -0.5
v 3 10 0.5
v 3 10 -0.5
v 4 6 0.5
v 4 6 -0.5
v 4 9 0.5
v 4 9 -0.5
v 7 5 0.5
v 7 5 -0.5
v 7 6 0.5
v 7 6 -0.5
v 9 0 0.5
v 9 0 -0.5
v 9 1 0.5
v 9 1 -0.5
v 9 4 0.5
v 9 4 -0.5
v 9 5 0.5
v 9 5 -0.5
v 10 1 0.5
v 10 1 -0.5
v 10 2 0.5
v 10 2 -0.5
v 10 4 0.5
v 10 4 -0.5
v -11 2 0.5
v -11 4 0.5
v -10 0 0.5
v -10 2 0.5
v -10 3 0.5
v -9 1 0.5
v -9 2 0.5
v -8 1 0.5
v -8 2 0.5
v -7 0 0.5
v -7 1 0.5
v -7 3 0.5
v -6 0 0.5
v -6 1 0.5
v -6 3 0.5
v -5 1 0.5
v -5 2 0.5
v -4 1 0.5
v -4 2 0.5
v -3 0 0.5
v -3 1 0.5
v -3 3 0.5
v -3 4 0.5
v -3 5 0.5
v -3 6 0.5
v -3 7 0.5
v -3 8 0.5
v -3 9 0.5
v -3 10 0.5
v -3 11 0.5
v -3 12 0.5
v -2 4 0.5
v -2 5 0.5
v -2 6 0.5
v -2 7 0.5
v -2 8 0.5
v -2 9 0.5
v -2 10 0.5
v -2 11 0.5
v -2 12 0.5
v -1 3 0.5
v -1 10 0.5
v -1 11 0.5
v 0 6 0.5
v 0 9 0.5
v 2 8 0.5
v 2 9 0.5
v 3 6 0.5
v 3 8 0.5
v 3 9 0.5
v 3 10 0.5
v 4 6 0.5
v 4 9 0.5
v 6 0 0.5
v 6 1 0.5
v 6 3 0.5
v 7 1 0.5
v 7 2 0.5
v 7 5 0.5
v 7 6 0.5
v 8 1 0.5
v 8 2 0.5
v 9 0 0.5
v 9 1 0.5
v 9 2 0.5
v 9 3 0.5
v 9 4 0.5
v 9 5 0.5
v 10 1 0.5
v 10 2 0.5
v 10 4 0.5
v -11 2 -0.5
v -11 4 -0.5
v -10 0 -0.5
v -10 2 -0.5
v -10 3 -0.5
v -9 1 -0.5
v -9 2 -0.5
v -8 1 -0.5
v -8 2 -0.5
v -7 0 -0.5
v -7 1 -0.5
v -7 3 -0.5
v -6 0 -0.5
v -6 1 -0.5
v -6 3 -0.5
v -5 1 -0.5
v -5 2 -0.5
v -4 1 -0.5
v -4 2 -0.5
v -3 0 -0.5
v -3 1 -0.5
v -3 3 -0.5
v -3 4 -0.5
v -3 5 -0.5
v -3 6 -0.5
v -3 7 -0.5
v -3 8 -0.5
v -3 9 -0.5
v -3 10 -0.5
v -3 11 -0.5
v -3 12 -0.5
v -2 4 -0.5
v -2 5 -0.5
v -2 6 -0.5
v -2 7 -0.5
v -2 8 -0.5
v -2 9 -0.5
v -2 10 -0.5
v -2 11 -0.5
v -2 12 -0.5
v -1 3 -0.5
v -1 10 -0.5
v -1 11 -0.5
v 0 6 -0.5
v 0 9 -0.5
v 2 8 -0.5
v 2 9 -0.5
v 3 6 -0.5
v 3 8 -0.5
v 3 9 -0.5
v 3 10 -0.5
v 4 6 -0.5
v 4 9 -0.5
v 6 0 -0.5
v 6 1 -0.5
v 6 3 -0.5
v 7 1 -0.5
v 7 2 -0.5
v 7 5 -0.5
v 7 6 -0.5
v 8 1 -0.5
v 8 2 -0.5
v 9 0 -0.5
v 9 1 -0.5
v 9 2 -0.5
v 9 3 -0.5
v 9 4 -0.5
v 9 5 -0.5
v 10 1 -0.5
v 10 2 -0.5
v 10 4 -0.5
v -10 0 0.5
v -7 0 0.5
v -6 0 0.5
v -3 0 0.5
v 6 0 0.5
v 9 0 0.5
v -10 0 -0.5
v -7 0 -0.5
v -6 0 -0.5
v -3 0 -0.5
v 6 0 -0.5
v 9 0 -0.5
v -7 1 0.5
v -6 1 0.5
v -3 1 0.5
v 6 1 0.5
v 9 1 0.5
v 10 1 0.5
v -7 1 -0.5
v -6 1 -0.5
v -3 1 -0.5
v 6 1 -0.5
v 9 1 -0.5
v 10 1 -0.5
v -11 2 0.5
v -10 2 0.5
v -11 2 -0.5
v -10 2 -0.5
v -11 4 0.5
v -3 4 0.5
v 9 4 0.5
v 10 4 0.5
v -11 4 -0.5
v -3 4 -0.5
v 9 4 -0.5
v 10 4 -0.5
v 7 5 0.5
v 9 5 0.5
v 7 5 -0.5
v 9 5 -0.5
v 4 6 0.5
v 7 6 0.5
v 4 6 -0.5
v 7 6 -0.5
v 3 9 0.5
v 4 9 0.5
v 3 9 -0.5
v 4 9 -0.5
v -1 10 0.5
v 3 10 0.5
v -1 10 -0.5
v 3 10 -0.5
v -2 11 0.5
v -1 11 0.5
v -2 11 -0.5
v -1 11 -0.5
v -3 12 0.5
v -2 12 0.5
v -3 12 -0.5
v -2 12 -0.5

# faces
f 3/3/1 2/3/1 1/3/1
f 4/3/1 2/3/1 3/3/1
f 7/4/1 6/4/1 5/4/1
f 8/4/1 6/4/1 7/4/1
f 11/4/1 10/4/1 9/4/1
f 12/4/1 10/4/1 11/4/1
f 15/4/1 14/4/1 13/4/1
f 16/4/1 14/4/1 15/4/1
f 17/3/1 16/3/1 15/3/1
f 18/3/1 16/3/1 17/3/1
f 19/4/1 18/4/1 17/4/1
f 20/4/1 18/4/1 19/4/1
f 21/3/1 20/3/1 19/3/1
f 22/3/1 20/3/1 21/3/1
f 23/4/1 22/4/1 21/4/1
f 24/4/1 22/4/1 23/4/1
f 25/3/1 24/3/1 23/3/1
f 26/3/1 24/3/1 25/3/1
f 27/4/1 26/4/1 25/4/1
f 28/4/1 26/4/1 27/4/1
f 29/3/1 28/3/1 27/3/1
f 30/3/1 28/3/1 29/3/1
f 33/4/1 32/4/1 31/4/1
f 34/4/1 32/4/1 33/4/1
f 35/4/2 36/4/2 37/4/2
f 37/4/2 36/4/2 38/4/2
f 39/4/2 40/4/2 41/4/2
f 41/4/2 40/4/2 42/4/2
f 43/3/2 44/3/2 45/3/2
f 45/3/2 44/3/2 46/3/2
f 47/3/2 48/3/2 49/3/2
f 49/3/2 48/3/2 50/3/2
f 51/1/2 52/1/2 53/1/2
f 53/1/2 52/1/2 54/1/2
f 55/1/2 56/1/2 57/1/2
f 57/1/2 56/1/2 58/1/2
f 59/1/2 60/1/2 61/1/2
f 61/1/2 60/1/2 62/1/2
f 63/4/2 64/4/2 65/4/2
f 65/4/2 64/4/2 66/4/2
f 67/1/2 68/1/2 69/1/2
f 69/1/2 68/1/2 70/1/2
f 71/3/2 72/3/2 73/3/2
f 73/3/2 72/3/2 74/3/2
f 73/1/2 74/1/2 75/1/2
f 75/1/2 74/1/2 76/1/2
f 80/3/3 78/3/3 77/3/3
f 81/3/3 78/3/3 80/3/3
f 82/4/3 80/4/3 79/4/3
f 82/4/3 81/4/3 80/4/3
f 83/4/3 81/4/3 82/4/3
f 84/4/3 82/4/3 79/4/3
f 84/3/3 83/3/3 82/3/3
f 85/4/3 81/4/3 83/4/3
f 85/3/3 83/3/3 84/3/3
f 86/4/3 84/4/3 79/4/3
f 86/4/3 85/4/3 84/4/3
f 87/4/3 85/4/3 86/4/3
f 88/3/3 78/3/3 81/3/3
f 88/4/3 85/4/3 87/4/3
f 88/4/3 81/4/3 85/4/3
f 90/3/3 88/3/3 87/3/3
f 91/3/3 78/3/3 88/3/3
f 91/3/3 88/3/3 90/3/3
f 92/4/3 90/4/3 89/4/3
f 92/4/3 91/4/3 90/4/3
f 93/4/3 91/4/3 92/4/3
f 94/4/3 92/4/3 89/4/3
f 94/3/3 93/3/3 92/3/3
f 95/4/3 91/4/3 93/4/3
f 95/3/3 93/3/3 94/3/3
f 96/4/3 94/4/3 89/4/3
f 96/4/3 95/4/3 94/4/3
f 97/4/3 95/4/3 96/4/3
f 98/3/3 78/3/3 91/3/3
f 98/4/3 95/4/3 97/4/3
f 98/4/3 91/4/3 95/4/3
f 99/3/3 78/3/3 98/3/3
f 108/3/3 98/3/3 97/3/3
f 108/3/3 99/3/3 98/3/3
f 108/4/3 100/4/3 99/4/3
f 109/3/3 101/3/3 100/3/3
f 109/4/3 100/4/3 108/4/3
f 110/4/3 102/4/3 101/4/3
f 110/3/3 101/3/3 109/3/3
f 111/3/3 103/3/3 102/3/3
f 111/4/3 102/4/3 110/4/3
f 112/4/3 104/4/3 103/4/3
f 112/3/3 103/3/3 111/3/3
f 113/3/3 105/3/3 104/3/3
f 113/4/3 104/4/3 112/4/3
f 114/4/3 106/4/3 105/4/3
f 114/3/3 105/3/3 113/3/3
f 115/3/3 107/3/3 106/3/3
f 115/4/3 106/4/3 114/4/3
f 116/3/3 107/3/3 115/3/3
f 117/3/3 114/3/3 113/3/3
f 117/3/3 113/3/3 112/3/3
f 117/3/3 115/3/3 114/3/3
f 117/3/3 110/3/3 109/3/3
f 117/3/3 109/3/3 108/3/3
f 117/3/3 108/3/3 97/3/3
f 117/3/3 111/3/3 110/3/3
f 117/3/3 112/3/3 111/3/3
f 118/3/3 115/3/3 117/3/3
f 119/3/3 115/3/3 118/3/3
f 120/1/3 118/1/3 117/1/3
f 121/1/3 118/1/3 120/1/3
f 122/2/3 121/2/3 120/2/3
f 123/1/3 118/1/3 121/1/3
f 123/2/3 121/2/3 122/2/3
f 124/1/3 120/1/3 117/1/3
f 124/2/3 122/2/3 120/2/3
f 125/1/3 123/1/3 122/1/3
f 125/2/3 122/2/3 124/2/3
f 126/1/3 118/1/3 123/1/3
f 126/1/3 123/1/3 125/1/3
f 127/1/3 118/1/3 126/1/3
f 128/1/3 125/1/3 124/1/3
f 128/1/3 124/1/3 117/1/3
f 128/1/3 126/1/3 125/1/3
f 129/1/3 126/1/3 128/1/3
f 131/3/3 117/3/3 97/3/3
f 132/1/3 128/1/3 117/1/3
f 132/3/3 117/3/3 131/3/3
f 133/4/3 131/4/3 130/4/3
f 133/4/3 132/4/3 131/4/3
f 134/4/3 132/4/3 133/4/3
f 135/1/3 128/1/3 132/1/3
f 136/1/3 128/1/3 135/1/3
f 137/4/3 133/4/3 130/4/3
f 137/3/3 134/3/3 133/3/3
f 138/4/3 132/4/3 134/4/3
f 138/3/3 134/3/3 137/3/3
f 139/4/3 137/4/3 130/4/3
f 139/4/3 138/4/3 137/4/3
f 140/4/3 138/4/3 139/4/3
f 141/4/3 132/4/3 138/4/3
f 141/4/3 138/4/3 140/4/3
f 142/1/3 135/1/3 132/1/3
f 142/4/3 132/4/3 141/4/3
f 143/1/3 135/1/3 142/1/3
f 144/1/3 135/1/3 143/1/3
f 145/3/3 141/3/3 140/3/3
f 146/1/3 143/1/3 142/1/3
f 146/3/3 141/3/3 145/3/3
f 146/1/3 142/1/3 141/1/3
f 147/1/3 143/1/3 146/1/3
f 148/3/4 149/3/4 151/3/4
f 151/3/4 149/3/4 152/3/4
f 150/4/4 151/4/4 153/4/4
f 151/4/4 152/4/4 153/4/4
f 153/4/4 152/4/4 154/4/4
f 150/4/4 153/4/4 155/4/4
f 153/3/4 154/3/4 155/3/4
f 154/4/4 152/4/4 156/4/4
f 155/3/4 154/3/4 156/3/4
f 150/4/4 155/4/4 157/4/4
f 155/4/4 156/4/4 157/4/4
f 157/4/4 156/4/4 158/4/4
f 152/3/4 149/3/4 159/3/4
f 158/4/4 156/4/4 159/4/4
f 156/4/4 152/4/4 159/4/4
f 158/3/4 159/3/4 161/3/4
f 159/3/4 149/3/4 162/3/4
f 161/3/4 159/3/4 162/3/4
f 160/4/4 161/4/4 163/4/4
f 161/4/4 162/4/4 163/4/4
f 163/4/4 162/4/4 164/4/4
f 160/4/4 163/4/4 165/4/4
f 163/3/4 164/3/4 165/3/4
f 164/4/4 162/4/4 166/4/4
f 165/3/4 164/3/4 166/3/4
f 160/4/4 165/4/4 167/4/4
f 165/4/4 166/4/4 167/4/4
f 167/4/4 166/4/4 168/4/4
f 162/3/4 149/3/4 169/3/4
f 168/4/4 166/4/4 169/4/4
f 166/4/4 162/4/4 169/4/4
f 169/3/4 149/3/4 170/3/4
f 168/3/4 169/3/4 179/3/4
f 169/3/4 170/3/4 179/3/4
f 170/4/4 171/4/4 179/4/4
f 171/3/4 172/3/4 180/3/4
f 179/4/4 171/4/4 180/4/4
f 172/4/4 173/4/4 181/4/4
f 180/3/4 172/3/4 181/3/4
f 173/3/4 174/3/4 182/3/4
f 181/4/4 173/4/4 182/4/4
f 174/4/4 175/4/4 183/4/4
f 182/3/4 174/3/4 183/3/4
f 175/3/4 176/3/4 184/3/4
f 183/4/4 175/4/4 184/4/4
f 176/4/4 177/4/4 185/4/4
f 184/3/4 176/3/4 185/3/4
f 177/3/4 178/3/4 186/3/4
f 185/4/4 177/4/4 186/4/4
f 186/3/4 178/3/4 187/3/4
f 184/3/4 185/3/4 188/3/4
f 183/3/4 184/3/4 188/3/4
f 185/3/4 186/3/4 188/3/4
f 180/3/4 181/3/4 188/3/4
f 179/3/4 180/3/4 188/3/4
f 168/3/4 179/3/4 188/3/4
f 181/3/4 182/3/4 188/3/4
f 182/3/4 183/3/4 188/3/4
f 188/3/4 186/3/4 189/3/4
f 189/3/4 186/3/4 190/3/4
f 188/1/4 189/1/4 191/1/4
f 191/1/4 189/1/4 192/1/4
f 191/2/4 192/2/4 193/2/4
f 192/1/4 189/1/4 194/1/4
f 193/2/4 192/2/4 194/2/4
f 188/1/4 191/1/4 195/1/4
f 191/2/4 193/2/4 195/2/4
f 193/1/4 194/1/4 196/1/4
f 195/2/4 193/2/4 196/2/4
f 194/1/4 189/1/4 197/1/4
f 196/1/4 194/1/4 197/1/4
f 197/1/4 189/1/4 198/1/4
f 195/1/4 196/1/4 199/1/4
f 188/1/4 195/1/4 199/1/4
f 196/1/4 197/1/4 199/1/4
f 199/1/4 197/1/4 200/1/4
f 168/3/4 188/3/4 202/3/4
f 188/1/4 199/1/4 203/1/4
f 202/3/4 188/3/4 203/3/4
f 201/4/4 202/4/4 204/4/4
f 202/4/4 203/4/4 204/4/4
f 204/4/4 203/4/4 205/4/4
f 203/1/4 199/1/4 206/1/4
f 206/1/4 199/1/4 207/1/4
f 201/4/4 204/4/4 208/4/4
f 204/3/4 205/3/4 208/3/4
f 205/4/4 203/4/4 209/4/4
f 208/3/4 205/3/4 209/3/4
f 201/4/4 208/4/4 210/4/4
f 208/4/4 209/4/4 210/4/4
f 210/4/4 209/4/4 211/4/4
f 209/4/4 203/4/4 212/4/4
f 211/4/4 209/4/4 212/4/4
f 203/1/4 206/1/4 213/1/4
f 212/4/4 203/4/4 213/4/4
f 213/1/4 206/1/4 214/1/4
f 214/1/4 206/1/4 215/1/4
f 211/3/4 212/3/4 216/3/4
f 213/1/4 214/1/4 217/1/4
f 216/3/4 212/3/4 217/3/4
f 212/1/4 213/1/4 217/1/4
f 217/1/4 214/1/4 218/1/4
f 225/4/5 220/4/5 219/4/5
f 226/4/5 220/4/5 225/4/5
f 227/4/5 222/4/5 221/4/5
f 228/4/5 222/4/5 227/4/5
f 229/4/5 224/4/5 223/4/5
f 230/4/5 224/4/5 229/4/5
f 237/3/5 232/3/5 231/3/5
f 238/3/5 232/3/5 237/3/5
f 239/3/5 234/3/5 233/3/5
f 240/3/5 234/3/5 239/3/5
f 241/3/5 236/3/5 235/3/5
f 242/3/5 236/3/5 241/3/5
f 245/3/5 244/3/5 243/3/5
f 246/3/5 244/3/5 245/3/5
f 247/3/6 248/3/6 251/3/6
f 251/3/6 248/3/6 252/3/6
f 249/1/6 250/1/6 253/1/6
f 253/1/6 250/1/6 254/1/6
f 255/1/6 256/1/6 257/1/6
f 257/1/6 256/1/6 258/1/6
f 259/1/6 260/1/6 261/1/6
f 261/1/6 260/1/6 262/1/6
f 263/1/6 264/1/6 265/1/6
f 265/1/6 264/1/6 266/1/6
f 267/1/6 268/1/6 269/1/6
f 269/1/6 268/1/6 270/1/6
f 271/3/6 272/3/6 273/3/6
f 273/3/6 272/3/6 274/3/6
f 275/3/6 276/3/6 277/3/6
f 277/3/6 276/3/6 278/3/6
